<?xml version="1.0" encoding="UTF-8"?>
<svg width="512px" height="512px" viewBox="0 0 512 512" version="1.1" xmlns="http://www.w3.org/2000/svg" xmlns:xlink="http://www.w3.org/1999/xlink">
    <title>icon-download</title>
    <g id="Page-1" stroke="none" stroke-width="1" fill="none" fill-rule="evenodd">
        <g id="icon-download" fill="#25285B" fill-rule="nonzero">
            <path d="M484.078,27.923 C466.072,9.917 442.131,0 416.666,0 L95.334,0 C42.766,0 0,42.769 0,95.333 L0,416.666 C0,469.233 42.768,512 95.334,512 L416.666,512 C469.233,512 512,469.233 512,416.666 L512,95.335 C512,69.87 502.084,45.929 484.078,27.923 Z M165.865,217.494 C171.722,211.637 181.219,211.637 187.078,217.494 L241,271.416 L240.998,111.399 C240.998,103.115 247.714,96.399 255.998,96.399 C264.283,96.399 270.998,103.115 270.998,111.399 L271,271.412 L324.918,217.492 C330.775,211.635 340.273,211.635 346.131,217.492 C351.989,223.349 351.989,232.847 346.132,238.705 L266.606,318.233 C263.792,321.047 259.977,322.627 255.999,322.627 C252.022,322.627 248.206,321.047 245.394,318.233 L165.867,238.707 C160.007,232.85 160.007,223.352 165.865,217.494 Z M400.602,415.6 L111.4,415.6 C103.117,415.6 96.4,408.884 96.4,400.6 C96.4,392.316 103.117,385.6 111.4,385.6 L400.601,385.6 C408.884,385.6 415.601,392.316 415.601,400.6 C415.601,408.884 408.885,415.6 400.602,415.6 Z" id="Shape"></path>
        </g>
    </g>
</svg>